<svg xmlns="http://www.w3.org/2000/svg" xmlns:xlink="http://www.w3.org/1999/xlink" version="1.1" x="0px" y="0px" viewBox="-125 21 100 125" enable-background="new -125 21 100 100" xml:space="preserve"><path d="M-69.104248,26.1101685c-7.7805786-0.5105591-19.7703247,0.4499512-29.6629028,9.454834  c-5.9837036,5.4466553-11.3876953,10.7542725-10.2037354,23.3949585c0.2442017,2.6072998,3.0036621,6.1469116,1.249939,11.5665894  c-0.7438965,2.2988892-5.6653442,7.3883057-7.4191895,10.0987549c-0.5368652,0.8295288-0.5073242,1.9281006,0.1384277,2.6759644  c0.7545166,0.8740234,2.1983643,1.9163208,4.8535767,2.151001c0.826416,0.072937,2.1973877,0.199646,1.8392334,2.7620239  c-0.0966797,0.6921997-0.8780518,2.4328003-1.2664795,3.2677612c-0.1689453,0.3632202-0.1601563,0.7944336,0.0723267,1.1206665  c0.2714233,0.3807983,0.918457,0.6383057,1.8071289,1.2696533c0.2318726,0.1647339,0.3830566,0.4351807-0.2704468,1.1051025  c-0.6751709,0.6921997-1.1652222,1.1270142,0.5411987,3.8300781c0.625,0.9901123,2.4029541,2.1314087,2.0175781,4.6224976  c-0.2346802,1.5175781-1.0356445,4.4212646,0.6031494,5.8743896c5.6749268,5.0320435,22.3496094,0.661377,22.2236938,2.8259277  c-0.5529785,9.5077515,34.3161621-0.3271484,32.031311-9.9136963c-0.9799805-4.1113892-2.8095703-8.4647827,6.1141357-15.4973755  C-31.7877197,76.7519531-23.5283203,29.100769-69.104248,26.1101685z M-87.5227051,67.0053101  c-1.3028564-1.9187012-1.8261719-4.3403931-1.291687-7.4885254c0.3867798-2.225769,0.6810913-4.0774536-0.1066284-5.3983765  c-0.8134155-1.368042-2.2543945-1.7290649-4.2894287-0.6456909c-1.3109131,0.7660522-2.6234741,2.1644897-3.2363281,3.4654541  l-3.874939-3.4589844c0.9393921-1.6549683,2.8649902-3.8250732,5.678772-5.4723511  c5.2441406-3.0663452,9.3180542-1.6123657,11.2433472,1.6287231c1.7539673,2.9533691,1.0499878,5.9903564,0.5115967,8.5149536  c-0.5183716,2.4543457-0.2138062,4.3198242,0.8717041,6.0548706l0.4176636,0.7029419l-5.2851563,3.0849609L-87.5227051,67.0053101z   M-80.168335,73.3259277c-1.5372925,0.8971558-3.243042,0.3998413-4.12146-1.083374  c-0.8974609-1.5084229-0.4666748-3.2189331,1.046814-4.0997314c1.5634766-0.9156494,3.227478-0.4284058,4.1528931,1.0646973  C-78.2140503,70.6853638-78.595459,72.4088745-80.168335,73.3259277z M-72.8825684,52.1876221  c-0.2575073-1.7410889,0.1837158-3.5687866,1.5874634-5.5440674c0.9985352-1.3936157,1.8104858-2.5620117,1.7078857-3.7246704  c-0.1046753-1.2033081-0.9703369-1.925354-2.7185669-1.8562622c-1.1486816,0.0911255-2.507019,0.6139526-3.3550415,1.3008423  l-1.5072632-3.6422119c1.1879272-0.821228,3.2198486-1.6691284,5.6862793-1.8668213  c4.5955811-0.3657227,6.9002686,1.9718628,7.1469116,4.8220825c0.2245483,2.5969849-1.2584229,4.4403687-2.4591675,5.9882202  c-1.1638794,1.5063477-1.571106,2.8818359-1.4015503,4.4256592l0.0535278,0.6182251l-4.6296997,0.3649902L-72.8825684,52.1876221z   M-69.9412842,58.9334106c-1.3466187,0.1060181-2.3483276-0.7965698-2.4594116-2.0999756  c-0.1157227-1.3269653,0.7428589-2.3538818,2.0678101-2.456604c1.3706055-0.1101074,2.347168,0.7718506,2.4870605,2.0975342  C-67.7346191,57.7733765-68.5637817,58.8255005-69.9412842,58.9334106z M-62.0358276,73.4642944  c-0.9960327,1.3997803-2.7261963,1.7495728-4.2020264,0.6832886c-1.4431763-1.0418701-1.6798096-2.8027344-0.6798706-4.2068481  c1.0153198-1.4317627,2.7536011-1.7312012,4.1722412-0.7045288C-61.2747803,70.2944336-61.0458374,72.0131836-62.0358276,73.4642944  z M-45.8896484,61.5927734c-1.9891357,2.800354-5.0507813,3.3875732-7.5770264,3.918457  c-2.4537964,0.520752-4.0358276,1.5552368-5.1820679,3.2507324l-0.4733887,0.666687l-4.9620972-3.5814209l0.6442871-0.9844971  c1.2260132-1.968689,3.2279053-3.4284668,6.3225098-4.2156982c2.1915894-0.5484009,4.0036011-1.0297852,4.8919678-2.2852783  c0.9210205-1.2980347,0.6671143-2.7616577-1.1480713-4.1830444c-1.2315674-0.8880005-3.0419922-1.5211792-4.4796143-1.5542603  l1.5917969-4.9442749c1.8936768,0.1881104,4.657959,1.0690308,7.3042603,2.9738159  C-44.0286865,54.2055054-43.7068481,58.519165-45.8896484,61.5927734z"/></svg>
